<svg width="400" height="300" viewBox="0 0 400 300" fill="none" xmlns="http://www.w3.org/2000/svg">
  <defs>
    <linearGradient id="bg" x1="0%" y1="0%" x2="100%" y2="100%">
      <stop offset="0%" style="stop-color:#FF6B35;stop-opacity:0.1" />
      <stop offset="100%" style="stop-color:#F7931E;stop-opacity:0.2" />
    </linearGradient>
    <linearGradient id="coxinha" x1="0%" y1="0%" x2="100%" y2="100%">
      <stop offset="0%" style="stop-color:#D4A574" />
      <stop offset="100%" style="stop-color:#B8956A" />
    </linearGradient>
  </defs>
  
  <rect width="400" height="300" fill="url(#bg)" rx="16"/>
  
  <!-- Coxinhas -->
  <ellipse cx="150" cy="120" rx="35" ry="45" fill="url(#coxinha)" transform="rotate(-15 150 120)"/>
  <ellipse cx="250" cy="110" rx="35" ry="45" fill="url(#coxinha)" transform="rotate(10 250 110)"/>
  <ellipse cx="200" cy="160" rx="35" ry="45" fill="url(#coxinha)" transform="rotate(-5 200 160)"/>
  <ellipse cx="120" cy="180" rx="30" ry="40" fill="url(#coxinha)" transform="rotate(20 120 180)"/>
  <ellipse cx="280" cy="170" rx="30" ry="40" fill="url(#coxinha)" transform="rotate(-20 280 170)"/>
  
  <!-- Highlights -->
  <ellipse cx="140" cy="105" rx="8" ry="12" fill="#F4E4BC" opacity="0.8" transform="rotate(-15 140 105)"/>
  <ellipse cx="240" cy="95" rx="8" ry="12" fill="#F4E4BC" opacity="0.8" transform="rotate(10 240 95)"/>
  <ellipse cx="190" cy="145" rx="8" ry="12" fill="#F4E4BC" opacity="0.8" transform="rotate(-5 190 145)"/>
  
  <!-- Text -->
  <text x="200" y="250" text-anchor="middle" fill="#FF6B35" font-family="Arial, sans-serif" font-size="24" font-weight="bold">Combo Clássico</text>
  <text x="200" y="275" text-anchor="middle" fill="#666" font-family="Arial, sans-serif" font-size="14">10 Coxinhas de Frango + 5 de Queijo</text>
</svg>